<svg xmlns="http://www.w3.org/2000/svg" viewBox="0 0 960 620" role="img" aria-labelledby="title desc">
  <title id="title">Accessible autonomous vehicle iHMI portfolio thumbnail</title>
  <desc id="desc">A summary thumbnail for a mixed-methods evaluation of an accessible autonomous vehicle interface.</desc>
  <rect width="960" height="620" fill="#f7fafc"/>
  <rect x="42" y="42" width="876" height="536" rx="28" fill="#ffffff" stroke="#d7dee8" stroke-width="2"/>
  <rect x="42" y="42" width="876" height="132" rx="28" fill="#1d4ed8"/>
  <path d="M42 146h876v32H42z" fill="#1d4ed8"/>
  <text x="78" y="96" fill="#ffffff" font-family="Segoe UI, Arial, sans-serif" font-size="28" font-weight="700">Mixed-Methods Evaluation</text>
  <text x="78" y="137" fill="#dbeafe" font-family="Segoe UI, Arial, sans-serif" font-size="20">Accessible iHMI evaluation in a real-road simulator</text>

  <g transform="translate(78 228)">
    <rect x="10" y="58" width="348" height="104" rx="28" fill="#e7f5f1" stroke="#8bd5c1" stroke-width="3"/>
    <path d="M72 58l44-52h136l52 52" fill="#f8fafc" stroke="#8bd5c1" stroke-width="3"/>
    <circle cx="94" cy="168" r="26" fill="#1f2937"/>
    <circle cx="278" cy="168" r="26" fill="#1f2937"/>
    <rect x="124" y="28" width="104" height="42" rx="8" fill="#0f766e"/>
    <text x="144" y="56" fill="#ffffff" font-family="Segoe UI, Arial, sans-serif" font-size="16" font-weight="700">iHMI</text>
    <text x="34" y="126" fill="#0f766e" font-family="Segoe UI, Arial, sans-serif" font-size="24" font-weight="800">RRADS</text>
  </g>

  <g transform="translate(514 218)">
    <rect width="306" height="274" rx="24" fill="#eff6ff" stroke="#bfdbfe" stroke-width="2"/>
    <text x="28" y="56" fill="#1d4ed8" font-family="Segoe UI, Arial, sans-serif" font-size="40" font-weight="800">41</text>
    <text x="88" y="56" fill="#1f2937" font-family="Segoe UI, Arial, sans-serif" font-size="24" font-weight="700">participants</text>
    <text x="28" y="99" fill="#4b5563" font-family="Segoe UI, Arial, sans-serif" font-size="19">with and without disabilities</text>
    <path d="M30 135h246" stroke="#bfdbfe" stroke-width="2"/>
    <text x="28" y="178" fill="#0f766e" font-family="Segoe UI, Arial, sans-serif" font-size="28" font-weight="800">5.79 vs 3.35</text>
    <text x="28" y="211" fill="#374151" font-family="Segoe UI, Arial, sans-serif" font-size="19">post-ride use intent</text>
    <text x="28" y="240" fill="#374151" font-family="Segoe UI, Arial, sans-serif" font-size="19">disability vs non-disability</text>
  </g>

  <g transform="translate(78 424)">
    <rect width="120" height="68" rx="16" fill="#fff7ed" stroke="#fed7aa" stroke-width="2"/>
    <text x="24" y="42" fill="#b45309" font-family="Segoe UI, Arial, sans-serif" font-size="20" font-weight="800">SCAS</text>
    <rect x="138" width="120" height="68" rx="16" fill="#fdf2f8" stroke="#fbcfe8" stroke-width="2"/>
    <text x="176" y="42" fill="#be185d" font-family="Segoe UI, Arial, sans-serif" font-size="20" font-weight="800">SUS</text>
    <rect x="276" width="150" height="68" rx="16" fill="#f8fafc" stroke="#dbe5df" stroke-width="2"/>
    <text x="306" y="42" fill="#374151" font-family="Segoe UI, Arial, sans-serif" font-size="20" font-weight="800">Interviews</text>
  </g>

  <text x="78" y="536" fill="#1f2937" font-family="Segoe UI, Arial, sans-serif" font-size="22" font-weight="700">Project signal:</text>
  <text x="260" y="536" fill="#4b5563" font-family="Segoe UI, Arial, sans-serif" font-size="22">accessibility, safety, adoption, controls</text>
</svg>
