<svg xmlns="http://www.w3.org/2000/svg" viewBox="0 0 640 400" role="img" aria-labelledby="title desc">
  <title id="title">l-diversity clustering algorithm thumbnail</title>
  <desc id="desc">Generated algorithm diagram with point clusters and protected diversity groups.</desc>
  <rect width="640" height="400" fill="#f7fafc"/>
  <rect x="48" y="46" width="544" height="308" rx="18" fill="#ffffff" stroke="#d6e2ea" stroke-width="3"/>
  <g fill="none" stroke="#e2e8f0" stroke-width="3">
    <path d="M120 286h400"/>
    <path d="M120 220h400"/>
    <path d="M120 154h400"/>
    <path d="M188 96v216"/>
    <path d="M320 96v216"/>
    <path d="M452 96v216"/>
  </g>
  <path d="M144 262c74-104 148-110 228-26 52 55 94 58 132 20" fill="none" stroke="#203040" stroke-width="7" stroke-linecap="round"/>
  <g fill="#0f766e">
    <circle cx="154" cy="248" r="13"/>
    <circle cx="184" cy="222" r="11"/>
    <circle cx="130" cy="212" r="10"/>
    <circle cx="208" cy="264" r="12"/>
  </g>
  <g fill="#315a7d">
    <circle cx="314" cy="156" r="13"/>
    <circle cx="352" cy="176" r="11"/>
    <circle cx="280" cy="182" r="10"/>
    <circle cx="324" cy="216" r="12"/>
  </g>
  <g fill="#b7791f">
    <circle cx="482" cy="240" r="13"/>
    <circle cx="510" cy="216" r="11"/>
    <circle cx="454" cy="206" r="10"/>
    <circle cx="524" cy="266" r="12"/>
  </g>
  <rect x="244" y="82" width="152" height="30" rx="9" fill="#203040"/>
</svg>
